<svg width="1920" height="1080" viewBox="0 0 1920 1080" xmlns="http://www.w3.org/2000/svg"><rect width="1920" height="1080" fill="#ff852c"/><path d="M 0,1080 C 0,1080 0,216 0,216 C 112.21052631578951,245.5980861244019 224.42105263157902,275.1961722488038 344,265 C 463.578947368421,254.80382775119617 590.5263157894735,204.8133971291866 733,205 C 875.4736842105265,205.1866028708134 1033.4736842105265,255.55023923444972 1164,255 C 1294.5263157894735,254.44976076555028 1397.578947368421,202.98564593301438 1519,188 C 1640.421052631579,173.01435406698562 1780.2105263157896,194.5071770334928 1920,216 C 1920,216 1920,1080 1920,1080 Z" fill="#d6ba8c" opacity="0.12"/><path d="M 0,1080 C 0,1080 0,432 0,432 C 149.8181818181818,439.87559808612446 299.6363636363636,447.75119617224885 436,464 C 572.3636363636364,480.24880382775115 695.2727272727273,504.87081339712915 811,484 C 926.7272727272727,463.12918660287085 1035.2727272727273,396.7655502392344 1143,379 C 1250.7272727272727,361.2344497607656 1357.6363636363635,392.066985645933 1487,409 C 1616.3636363636365,425.933014354067 1768.1818181818182,428.96650717703346 1920,432 C 1920,432 1920,1080 1920,1080 Z" fill="#d6ba8c" opacity="0.24"/><path d="M 0,1080 C 0,1080 0,648 0,648 C 156.95693779904303,684.9377990430621 313.91387559808607,721.8755980861243 426,713 C 538.0861244019139,704.1244019138757 605.3014354066985,649.4354066985646 720,639 C 834.6985645933015,628.5645933014354 996.8803827751196,662.3827751196171 1144,657 C 1291.1196172248804,651.6172248803829 1423.177033492823,607.0334928229665 1550,599 C 1676.822966507177,590.9665071770335 1798.4114832535884,619.4832535885167 1920,648 C 1920,648 1920,1080 1920,1080 Z" fill="#d6ba8c" opacity="0.36"/><path d="M 0,1080 C 0,1080 0,864 0,864 C 90.69856459330143,872.5933014354067 181.39712918660285,881.1866028708134 316,880 C 450.60287081339715,878.8133971291866 629.11004784689,867.8468899521532 771,885 C 912.88995215311,902.1531100478468 1018.1626794258373,947.425837320574 1150,928 C 1281.8373205741627,908.574162679426 1440.239234449761,824.4497607655502 1573,803 C 1705.760765550239,781.5502392344498 1812.8803827751194,822.7751196172248 1920,864 C 1920,864 1920,1080 1920,1080 Z" fill="#d6ba8c" opacity="0.48"/></svg>